<?xml version="1.0" standalone="no"?>
<!DOCTYPE svg PUBLIC "-//W3C//DTD SVG 20010904//EN"
 "http://www.w3.org/TR/2001/REC-SVG-20010904/DTD/svg10.dtd">
<svg version="1.0" xmlns="http://www.w3.org/2000/svg"
 width="118" height="55" viewBox="0 0 500.000000 500.000000"
 preserveAspectRatio="xMidYMid meet">

<g transform="translate(0.000000,500.000000) scale(0.100000,-0.100000)"
fill="#000000" stroke="none">
<path d="M100 3315 c0 -13 273 -15 2400 -15 2127 0 2400 2 2400 15 0 13 -273
15 -2400 15 -2127 0 -2400 -2 -2400 -15z"/>
<path d="M2503 3015 c-41 -18 -67 -66 -59 -111 9 -44 54 -80 121 -95 42 -9 55
-16 53 -28 -5 -25 -57 -26 -89 -2 -35 26 -37 26 -74 -3 -27 -21 -28 -25 -15
-41 43 -52 153 -69 227 -36 49 23 63 45 63 99 0 56 -24 81 -105 107 -38 12
-71 27 -73 34 -6 17 68 14 88 -4 14 -13 20 -12 48 8 37 26 36 35 -8 65 -39 26
-125 30 -177 7z m182 -19 l28 -19 -24 -18 c-14 -11 -31 -16 -39 -12 -8 4 -35
7 -60 7 -38 1 -45 -2 -45 -18 0 -16 14 -24 65 -39 76 -21 110 -53 110 -101 0
-91 -133 -136 -239 -81 -36 18 -39 38 -9 59 19 14 23 13 46 -4 29 -23 80 -26
107 -6 16 12 17 16 6 30 -7 8 -29 18 -50 22 -128 23 -171 121 -80 182 29 20
44 23 95 20 37 -2 72 -11 89 -22z"/>
<path d="M2760 2860 c0 -93 3 -170 8 -170 4 0 6 74 4 165 l-3 165 126 0 125 0
0 -30 0 -29 -77 -3 -78 -3 -3 -32 -3 -33 50 0 c50 0 51 -1 51 -29 0 -28 -2
-30 -47 -33 -46 -3 -48 -4 -51 -35 l-3 -33 80 0 80 0 4 -37 4 -38 1 43 2 42
-81 0 c-78 0 -80 1 -77 23 3 19 10 22 51 25 l47 3 0 40 0 39 -51 0 c-47 0 -50
2 -47 23 3 20 9 22 81 25 l77 3 0 39 0 40 -135 0 -135 0 0 -170z"/>
<path d="M3060 2860 c0 -93 3 -170 8 -170 4 0 6 74 4 165 l-3 165 88 0 c48 0
105 -5 126 -11 69 -19 87 -89 32 -125 -28 -18 -33 -34 -11 -34 19 0 56 -47 56
-71 0 -35 -42 -70 -95 -78 l-50 -9 40 -1 c52 -1 101 28 109 67 8 36 -7 77 -33
91 -20 11 -19 12 5 36 14 14 24 35 24 52 -1 66 -59 93 -200 93 l-100 0 0 -170z"/>
<path d="M3397 3023 c-10 -9 -9 -333 1 -333 4 0 7 73 7 162 l0 163 123 3 122
3 0 -30 0 -30 -72 -3 -73 -3 -3 -32 c-3 -33 -3 -33 42 -33 44 0 46 -1 46 -30
0 -29 -2 -30 -45 -30 -45 0 -45 0 -45 -35 l0 -35 81 0 81 0 -4 -35 c-2 -19 0
-35 5 -35 4 0 7 17 5 38 l-3 37 -77 3 c-75 3 -78 4 -78 27 0 23 4 25 45 25
l45 0 0 40 0 40 -45 0 c-41 0 -45 2 -45 25 0 24 2 25 75 25 l75 0 0 40 0 40
-128 0 c-71 0 -132 -3 -135 -7z"/>
<path d="M3702 2973 l2 -58 3 53 4 52 45 0 44 0 0 -130 0 -130 76 0 76 0 -4
-35 c-2 -19 0 -35 4 -35 4 0 8 18 8 40 l0 40 -75 0 -74 0 -3 128 -3 127 -52 3
-53 3 2 -58z"/>
<path d="M4085 3018 c-39 -102 -113 -323 -110 -327 7 -6 5 -11 54 134 71 207
63 195 120 195 56 0 43 20 115 -184 25 -70 43 -132 40 -137 -3 -5 0 -9 6 -9
16 0 11 16 -51 194 l-51 146 -59 0 c-39 0 -61 -4 -64 -12z"/>
<path d="M4405 3014 c-51 -26 -71 -79 -50 -130 16 -40 45 -59 110 -75 59 -14
76 -26 55 -39 -25 -16 -66 -11 -93 10 -32 25 -35 25 -72 -5 -28 -23 -29 -24
-11 -44 48 -53 186 -67 244 -24 50 37 59 121 18 162 -8 8 -44 24 -79 35 -36
12 -66 26 -68 31 -5 14 61 19 74 6 16 -16 39 -13 66 8 21 16 22 20 10 39 -8
12 -27 26 -43 32 -43 15 -127 12 -161 -6z m180 -18 l29 -19 -24 -19 c-14 -12
-29 -16 -39 -11 -9 4 -36 7 -61 7 -38 1 -45 -2 -45 -19 0 -16 12 -23 61 -36
72 -20 102 -37 111 -64 29 -92 -52 -159 -171 -141 -42 7 -96 38 -96 56 0 4 11
15 25 24 23 15 26 15 45 -4 25 -25 91 -27 110 -4 19 21 -2 38 -70 58 -58 16
-96 47 -101 81 -6 38 12 76 44 96 41 26 139 23 182 -5z"/>
<path d="M270 2850 l0 -170 50 0 50 0 0 48 c1 42 24 92 44 92 3 0 20 -31 37
-70 l32 -70 53 0 c63 0 64 -8 -11 139 l-46 92 41 49 c22 26 40 51 40 54 0 3
-20 6 -44 6 -43 0 -45 -2 -93 -67 l-48 -68 -3 68 -3 67 -49 0 -50 0 0 -170z"/>
<path d="M677 2861 c-32 -88 -57 -164 -57 -170 0 -6 18 -11 39 -11 36 0 40 3
51 35 11 35 12 35 69 35 57 0 58 -1 67 -32 9 -31 12 -33 62 -36 29 -2 52 1 52
5 0 4 -26 80 -58 168 l-57 160 -56 3 -56 3 -56 -160z m119 24 c21 -52 18 -65
-16 -65 -16 0 -30 5 -30 11 0 16 22 89 27 89 2 0 11 -16 19 -35z"/>
<path d="M1000 2850 l0 -170 50 0 50 0 0 71 c0 67 1 70 23 67 17 -2 27 -17 46
-70 l23 -68 50 0 c47 0 50 1 45 23 -3 12 -15 45 -28 74 l-23 52 26 21 c32 25
44 71 28 110 -19 46 -63 60 -184 60 l-106 0 0 -170z m184 94 c9 -8 16 -19 16
-24 0 -20 -34 -40 -66 -40 -33 0 -34 1 -34 40 0 39 1 40 34 40 19 0 42 -7 50
-16z"/>
<path d="M1344 3007 c-2 -7 -3 -82 -2 -167 l3 -155 48 -3 47 -3 0 170 0 171
-45 0 c-28 0 -48 -5 -51 -13z"/>
<path d="M1500 2850 l0 -170 130 0 130 0 0 35 0 35 -80 0 -80 0 0 35 0 35 50
0 50 0 0 35 0 35 -50 0 c-49 0 -50 1 -50 30 l0 30 80 0 80 0 0 35 0 35 -130 0
-130 0 0 -170z"/>
<path d="M1810 2850 l0 -170 50 0 50 0 0 71 c0 67 1 70 23 67 17 -2 27 -17 46
-70 l23 -68 50 0 c47 0 50 1 45 23 -3 12 -15 45 -28 74 l-23 52 27 21 c55 43
41 136 -24 159 -18 6 -79 11 -135 11 l-104 0 0 -170z m184 94 c9 -8 16 -19 16
-24 0 -20 -34 -40 -66 -40 -33 0 -34 1 -34 40 0 39 1 40 34 40 19 0 42 -7 50
-16z"/>
<path d="M3160 2924 c0 -35 0 -35 41 -32 79 6 76 68 -2 68 -38 0 -39 -1 -39
-36z m83 14 c8 -24 -5 -38 -33 -38 -32 0 -45 13 -36 35 7 18 63 20 69 3z"/>
<path d="M4116 2880 c-9 -22 -16 -43 -16 -45 0 -3 16 -5 35 -5 38 0 42 8 24
59 -14 41 -24 39 -43 -9z m39 -17 c5 -19 2 -23 -14 -23 -23 0 -24 3 -15 38 7
26 18 20 29 -15z"/>
<path d="M3164 2816 c-12 -32 0 -61 28 -64 53 -6 88 34 56 66 -17 17 -77 15
-84 -2z m76 -6 c22 -14 0 -44 -34 -48 -28 -4 -43 16 -32 43 6 17 43 20 66 5z"/>
<path d="M3703 2755 c0 -38 2 -53 4 -32 2 20 2 52 0 70 -2 17 -4 1 -4 -38z"/>
<path d="M4071 2728 c-6 -17 -9 -33 -6 -36 3 -3 10 9 16 26 10 30 14 32 59 32
44 0 49 -2 59 -30 14 -42 21 -38 8 5 -10 35 -11 35 -68 35 -55 0 -57 -1 -68
-32z"/>
<path d="M102 2323 c3 -17 125 -18 2398 -18 2273 0 2395 1 2398 18 3 16 -116
17 -2398 17 -2282 0 -2401 -1 -2398 -17z"/>
</g>
</svg>
